ISO-10303-21;
HEADER;
FILE_DESCRIPTION (( 'STEP AP203' ),
    '1' );
FILE_NAME ('drone_foot.STEP',
    '2025-09-04T17:03:43',
    ( '' ),
    ( '' ),
    'SwSTEP 2.0',
    'SolidWorks 2023',
    '' );
FILE_SCHEMA (( 'CONFIG_CONTROL_DESIGN' ));
ENDSEC;

DATA;
#1 = ADVANCED_FACE ( 'NONE', ( #625 ), #485, .T. ) ;
#2 = VERTEX_POINT ( 'NONE', #552 ) ;
#3 = CARTESIAN_POINT ( 'NONE',  ( 0.000000000000000000, 1.500000000000000000, 9.000000000000000000 ) ) ;
#4 = AXIS2_PLACEMENT_3D ( 'NONE', #457, #521, #704 ) ;
#5 = EDGE_CURVE ( 'NONE', #341, #683, #546, .T. ) ;
#6 = ORIENTED_EDGE ( 'NONE', *, *, #566, .F. ) ;
#7 = CIRCLE ( 'NONE', #203, 3.249999999999999556 ) ;
#8 = AXIS2_PLACEMENT_3D ( 'NONE', #300, #550, #476 ) ;
#9 = DIRECTION ( 'NONE',  ( 1.000000000000000000, 0.000000000000000000, 0.000000000000000000 ) ) ;
#10 = DIRECTION ( 'NONE',  ( 0.000000000000000000, 0.000000000000000000, -1.000000000000000000 ) ) ;
#11 = DIRECTION ( 'NONE',  ( 0.000000000000000000, 0.000000000000000000, 1.000000000000000000 ) ) ;
#12 = EDGE_CURVE ( 'NONE', #2, #672, #346, .T. ) ;
#13 = VERTEX_POINT ( 'NONE', #418 ) ;
#14 = CYLINDRICAL_SURFACE ( 'NONE', #30, 3.249999999999999556 ) ;
#15 = EDGE_CURVE ( 'NONE', #305, #364, #127, .T. ) ;
#16 = ORIENTED_EDGE ( 'NONE', *, *, #440, .T. ) ;
#17 = LOCAL_TIME ( 18, 3, 43.00000000000000000, #48 ) ;
#18 = AXIS2_PLACEMENT_3D ( 'NONE', #556, #676, #796 ) ;
#19 = CARTESIAN_POINT ( 'NONE',  ( -5.750000000000000000, 1.500000000000000000, -5.750000000000000000 ) ) ;
#20 = DIRECTION ( 'NONE',  ( -0.000000000000000000, -1.000000000000000000, -0.000000000000000000 ) ) ;
#21 = ORIENTED_EDGE ( 'NONE', *, *, #533, .T. ) ;
#22 = CARTESIAN_POINT ( 'NONE',  ( -5.750000000000000000, 1.500000000000000000, 7.250000000000000000 ) ) ;
#23 = EDGE_CURVE ( 'NONE', #773, #712, #799, .T. ) ;
#24 = VERTEX_POINT ( 'NONE', #213 ) ;
#25 = PLANE ( 'NONE',  #722 ) ;
#26 = DIRECTION ( 'NONE',  ( 0.000000000000000000, 1.000000000000000000, -0.000000000000000000 ) ) ;
#27 = ORIENTED_EDGE ( 'NONE', *, *, #259, .F. ) ;
#28 = VECTOR ( 'NONE', #94, 1000.000000000000000 ) ;
#29 = DIRECTION ( 'NONE',  ( -0.000000000000000000, -1.000000000000000000, -0.000000000000000000 ) ) ;
#30 = AXIS2_PLACEMENT_3D ( 'NONE', #332, #20, #275 ) ;
#31 = APPROVAL_ROLE ( '' ) ;
#32 = ORIENTED_EDGE ( 'NONE', *, *, #566, .T. ) ;
#33 = MECHANICAL_CONTEXT ( 'NONE', #227, 'mechanical' ) ;
#34 = EDGE_CURVE ( 'NONE', #296, #303, #7, .T. ) ;
#35 = CARTESIAN_POINT ( 'NONE',  ( 5.750000000000000000, 1.500000000000000000, 5.750000000000000000 ) ) ;
#36 = ORIENTED_EDGE ( 'NONE', *, *, #795, .F. ) ;
#37 = DIRECTION ( 'NONE',  ( -0.000000000000000000, -1.000000000000000000, -0.000000000000000000 ) ) ;
#38 = CARTESIAN_POINT ( 'NONE',  ( 9.000000000000000000, 0.000000000000000000, -0.000000000000000000 ) ) ;
#39 = EDGE_CURVE ( 'NONE', #303, #684, #667, .T. ) ;
#40 = PERSON_AND_ORGANIZATION_ROLE ( 'creator' ) ;
#41 = DIRECTION ( 'NONE',  ( 0.000000000000000000, 0.000000000000000000, 1.000000000000000000 ) ) ;
#42 = ORIENTED_EDGE ( 'NONE', *, *, #655, .T. ) ;
#43 = LINE ( 'NONE', #297, #178 ) ;
#44 = CARTESIAN_POINT ( 'NONE',  ( 5.750000000000000000, 1.500000000000000000, 5.750000000000000000 ) ) ;
#45 = CIRCLE ( 'NONE', #344, 1.500000000000000444 ) ;
#46 = VECTOR ( 'NONE', #662, 1000.000000000000000 ) ;
#47 = AXIS2_PLACEMENT_3D ( 'NONE', #448, #71, #624 ) ;
#48 = COORDINATED_UNIVERSAL_TIME_OFFSET ( 0, 0, .AHEAD. ) ;
#49 = DIRECTION ( 'NONE',  ( 0.000000000000000000, 0.000000000000000000, 1.000000000000000000 ) ) ;
#50 = EDGE_CURVE ( 'NONE', #296, #424, #717, .T. ) ;
#51 = LINE ( 'NONE', #167, #97 ) ;
#52 = ORIENTED_EDGE ( 'NONE', *, *, #371, .F. ) ;
#53 = ADVANCED_FACE ( 'NONE', ( #295 ), #164, .F. ) ;
#54 = CARTESIAN_POINT ( 'NONE',  ( -5.750000000000000000, 1.500000000000000000, -9.000000000000000000 ) ) ;
#55 = EDGE_LOOP ( 'NONE', ( #321, #58, #426, #214 ) ) ;
#56 = CARTESIAN_POINT ( 'NONE',  ( 0.000000000000000000, 1.500000000000000000, 0.000000000000000000 ) ) ;
#57 = PLANE ( 'NONE',  #529 ) ;
#58 = ORIENTED_EDGE ( 'NONE', *, *, #798, .F. ) ;
#59 = FACE_OUTER_BOUND ( 'NONE', #516, .T. ) ;
#60 = SECURITY_CLASSIFICATION ( '', '', #410 ) ;
#61 = VECTOR ( 'NONE', #435, 1000.000000000000000 ) ;
#62 = VERTEX_POINT ( 'NONE', #237 ) ;
#63 = FACE_OUTER_BOUND ( 'NONE', #89, .T. ) ;
#64 = EDGE_CURVE ( 'NONE', #292, #424, #72, .T. ) ;
#65 = CARTESIAN_POINT ( 'NONE',  ( 0.000000000000000000, 1.500000000000000000, -9.000000000000000000 ) ) ;
#66 = UNCERTAINTY_MEASURE_WITH_UNIT (LENGTH_MEASURE( 1.000000000000000082E-05 ), #68, 'distance_accuracy_value', 'NONE');
#67 = CARTESIAN_POINT ( 'NONE',  ( 5.750000000000000000, 1.500000000000000000, 7.250000000000000000 ) ) ;
#68 =( LENGTH_UNIT ( ) NAMED_UNIT ( * ) SI_UNIT ( .MILLI., .METRE. ) );
#69 = APPROVAL ( #154, 'UNSPECIFIED' ) ;
#70 = ORIENTED_EDGE ( 'NONE', *, *, #533, .F. ) ;
#71 = DIRECTION ( 'NONE',  ( 0.000000000000000000, 1.000000000000000000, -0.000000000000000000 ) ) ;
#72 = CIRCLE ( 'NONE', #334, 3.249999999999999556 ) ;
#73 = ADVANCED_FACE ( 'NONE', ( #417 ), #230, .F. ) ;
#74 = VERTEX_POINT ( 'NONE', #781 ) ;
#75 = AXIS2_PLACEMENT_3D ( 'NONE', #482, #726, #793 ) ;
#76 = CIRCLE ( 'NONE', #115, 3.249999999999999556 ) ;
#77 = CARTESIAN_POINT ( 'NONE',  ( -5.750000000000000000, 0.000000000000000000, -4.250000000000000000 ) ) ;
#78 = ORIENTED_EDGE ( 'NONE', *, *, #239, .T. ) ;
#79 = FACE_BOUND ( 'NONE', #560, .T. ) ;
#80 = CYLINDRICAL_SURFACE ( 'NONE', #4, 1.499999999999999556 ) ;
#81 = EDGE_LOOP ( 'NONE', ( #500, #129 ) ) ;
#82 = FACE_OUTER_BOUND ( 'NONE', #618, .T. ) ;
#83 = FACE_BOUND ( 'NONE', #222, .T. ) ;
#84 = VERTEX_POINT ( 'NONE', #358 ) ;
#85 = VECTOR ( 'NONE', #544, 1000.000000000000000 ) ;
#86 = DIRECTION ( 'NONE',  ( -0.000000000000000000, -1.000000000000000000, -0.000000000000000000 ) ) ;
#87 = VECTOR ( 'NONE', #406, 1000.000000000000000 ) ;
#88 = CARTESIAN_POINT ( 'NONE',  ( -5.750000000000000000, 1.500000000000000000, -5.750000000000000000 ) ) ;
#89 = EDGE_LOOP ( 'NONE', ( #247, #370, #475, #479 ) ) ;
#90 = CYLINDRICAL_SURFACE ( 'NONE', #220, 4.500000000000000000 ) ;
#91 = LINE ( 'NONE', #349, #299 ) ;
#92 = EDGE_CURVE ( 'NONE', #253, #24, #478, .T. ) ;
#93 = EDGE_LOOP ( 'NONE', ( #540, #557, #696, #598, #492, #176, #401, #298 ) ) ;
#94 = DIRECTION ( 'NONE',  ( -0.000000000000000000, -1.000000000000000000, -0.000000000000000000 ) ) ;
#95 = PERSON_AND_ORGANIZATION ( #459, #367 ) ;
#96 = ORIENTED_EDGE ( 'NONE', *, *, #512, .T. ) ;
#97 = VECTOR ( 'NONE', #29, 1000.000000000000000 ) ;
#98 = AXIS2_PLACEMENT_3D ( 'NONE', #392, #575, #134 ) ;
#99 = DIRECTION ( 'NONE',  ( 1.224646799147354193E-16, 0.000000000000000000, -1.000000000000000000 ) ) ;
#100 = PERSON_AND_ORGANIZATION ( #459, #367 ) ;
#101 = DIRECTION ( 'NONE',  ( -0.000000000000000000, -1.000000000000000000, -0.000000000000000000 ) ) ;
#102 = VERTEX_POINT ( 'NONE', #786 ) ;
#103 = FACE_BOUND ( 'NONE', #238, .T. ) ;
#104 = DIRECTION ( 'NONE',  ( -0.000000000000000000, -1.000000000000000000, -0.000000000000000000 ) ) ;
#105 = DIRECTION ( 'NONE',  ( 0.000000000000000000, 1.000000000000000000, -0.000000000000000000 ) ) ;
#106 = DIRECTION ( 'NONE',  ( 0.000000000000000000, 0.000000000000000000, 1.000000000000000000 ) ) ;
#107 = FACE_OUTER_BOUND ( 'NONE', #685, .T. ) ;
#108 = CARTESIAN_POINT ( 'NONE',  ( -5.750000000000000000, 0.000000000000000000, -9.000000000000000000 ) ) ;
#109 = EDGE_CURVE ( 'NONE', #790, #24, #484, .T. ) ;
#110 = DIRECTION ( 'NONE',  ( 0.000000000000000000, 1.000000000000000000, -0.000000000000000000 ) ) ;
#111 = DIRECTION ( 'NONE',  ( -0.000000000000000000, -1.000000000000000000, -0.000000000000000000 ) ) ;
#112 = ORIENTED_EDGE ( 'NONE', *, *, #15, .F. ) ;
#113 = FACE_OUTER_BOUND ( 'NONE', #55, .T. ) ;
#114 = VECTOR ( 'NONE', #246, 1000.000000000000000 ) ;
#115 = AXIS2_PLACEMENT_3D ( 'NONE', #447, #437, #572 ) ;
#116 = PERSON_AND_ORGANIZATION ( #459, #367 ) ;
#117 = CARTESIAN_POINT ( 'NONE',  ( -5.750000000000000000, 1.500000000000000000, -9.000000000000000000 ) ) ;
#118 = ORIENTED_EDGE ( 'NONE', *, *, #333, .T. ) ;
#119 = CYLINDRICAL_SURFACE ( 'NONE', #481, 3.249999999999999556 ) ;
#120 = CARTESIAN_POINT ( 'NONE',  ( 5.750000000000000000, 0.000000000000000000, 4.249999999999998224 ) ) ;
#121 = EDGE_LOOP ( 'NONE', ( #612, #586, #504, #782 ) ) ;
#122 = LINE ( 'NONE', #67, #748 ) ;
#123 = ORIENTED_EDGE ( 'NONE', *, *, #623, .T. ) ;
#124 = LINE ( 'NONE', #3, #772 ) ;
#125 = ORIENTED_EDGE ( 'NONE', *, *, #23, .T. ) ;
#126 = CC_DESIGN_SECURITY_CLASSIFICATION ( #60, ( #720 ) ) ;
#127 = CIRCLE ( 'NONE', #233, 1.499999999999999556 ) ;
#128 = AXIS2_PLACEMENT_3D ( 'NONE', #187, #316, #805 ) ;
#129 = ORIENTED_EDGE ( 'NONE', *, *, #362, .F. ) ;
#130 = CC_DESIGN_DATE_AND_TIME_ASSIGNMENT ( #613, #731, ( #506 ) ) ;
#131 = DIRECTION ( 'NONE',  ( -0.000000000000000000, -1.000000000000000000, -0.000000000000000000 ) ) ;
#132 = EDGE_LOOP ( 'NONE', ( #582, #290, #381, #21 ) ) ;
#133 = ADVANCED_FACE ( 'NONE', ( #536 ), #148, .F. ) ;
#134 = DIRECTION ( 'NONE',  ( 0.000000000000000000, 0.000000000000000000, -1.000000000000000000 ) ) ;
#135 = CARTESIAN_POINT ( 'NONE',  ( -5.750000000000000000, 1.500000000000000000, 5.750000000000000000 ) ) ;
#136 = APPROVAL ( #288, 'UNSPECIFIED' ) ;
#137 = VECTOR ( 'NONE', #784, 1000.000000000000000 ) ;
#138 = EDGE_LOOP ( 'NONE', ( #692, #668, #670, #648 ) ) ;
#139 = VECTOR ( 'NONE', #379, 1000.000000000000000 ) ;
#140 = CARTESIAN_POINT ( 'NONE',  ( 0.000000000000000000, 101.5000000000000000, 0.000000000000000000 ) ) ;
#141 = ORIENTED_EDGE ( 'NONE', *, *, #764, .F. ) ;
#142 = CARTESIAN_POINT ( 'NONE',  ( 5.750000000000000000, 1.500000000000000000, 4.249999999999999112 ) ) ;
#143 = FACE_OUTER_BOUND ( 'NONE', #430, .T. ) ;
#144 = EDGE_CURVE ( 'NONE', #296, #339, #429, .T. ) ;
#145 = ORIENTED_EDGE ( 'NONE', *, *, #591, .F. ) ;
#146 = LOCAL_TIME ( 18, 3, 43.00000000000000000, #716 ) ;
#147 = DIRECTION ( 'NONE',  ( 0.000000000000000000, 0.000000000000000000, 1.000000000000000000 ) ) ;
#148 = TOROIDAL_SURFACE ( 'NONE', #464, 6.000000000000000000, 1.500000000000000000 ) ;
#149 = AXIS2_PLACEMENT_3D ( 'NONE', #44, #26, #361 ) ;
#150 = EDGE_CURVE ( 'NONE', #405, #253, #495, .T. ) ;
#151 = ORIENTED_EDGE ( 'NONE', *, *, #628, .T. ) ;
#152 = LINE ( 'NONE', #291, #87 ) ;
#153 = EDGE_CURVE ( 'NONE', #733, #186, #735, .T. ) ;
#154 = APPROVAL_STATUS ( 'not_yet_approved' ) ;
#155 = ORIENTED_EDGE ( 'NONE', *, *, #628, .F. ) ;
#156 = CARTESIAN_POINT ( 'NONE',  ( 0.000000000000000000, 0.000000000000000000, 0.000000000000000000 ) ) ;
#157 = FACE_OUTER_BOUND ( 'NONE', #273, .T. ) ;
#158 = CARTESIAN_POINT ( 'NONE',  ( -5.750000000000000000, 1.500000000000000000, -5.750000000000000000 ) ) ;
#159 = VERTEX_POINT ( 'NONE', #783 ) ;
#160 = LINE ( 'NONE', #415, #480 ) ;
#161 = AXIS2_PLACEMENT_3D ( 'NONE', #577, #740, #255 ) ;
#162 = DIRECTION ( 'NONE',  ( -0.000000000000000000, -1.000000000000000000, -0.000000000000000000 ) ) ;
#163 = DATE_AND_TIME ( #469, #146 ) ;
#164 = CYLINDRICAL_SURFACE ( 'NONE', #400, 1.499999999999999556 ) ;
#165 = ORIENTED_EDGE ( 'NONE', *, *, #753, .T. ) ;
#166 = CARTESIAN_POINT ( 'NONE',  ( -5.750000000000000000, 0.000000000000000000, 5.750000000000000000 ) ) ;
#167 = CARTESIAN_POINT ( 'NONE',  ( 9.000000000000000000, 1.500000000000000000, 5.750000000000000000 ) ) ;
#168 = CARTESIAN_POINT ( 'NONE',  ( 5.750000000000000000, 1.500000000000000000, -5.750000000000000000 ) ) ;
#169 = CARTESIAN_POINT ( 'NONE',  ( -5.750000000000000000, 0.000000000000000000, -5.750000000000000000 ) ) ;
#170 = CARTESIAN_POINT ( 'NONE',  ( 5.750000000000000000, 1.500000000000000000, -5.750000000000000000 ) ) ;
#171 = ORIENTED_EDGE ( 'NONE', *, *, #747, .T. ) ;
#172 = EDGE_CURVE ( 'NONE', #200, #405, #554, .T. ) ;
#173 = DIRECTION ( 'NONE',  ( 1.000000000000000000, 0.000000000000000000, 1.224646799147353207E-16 ) ) ;
#174 = COORDINATED_UNIVERSAL_TIME_OFFSET ( 0, 0, .AHEAD. ) ;
#175 = CARTESIAN_POINT ( 'NONE',  ( 5.750000000000000000, 0.000000000000000000, -5.750000000000000000 ) ) ;
#176 = ORIENTED_EDGE ( 'NONE', *, *, #64, .T. ) ;
#177 = CC_DESIGN_APPROVAL ( #136, ( #60 ) ) ;
#178 = VECTOR ( 'NONE', #671, 1000.000000000000000 ) ;
#179 = AXIS2_PLACEMENT_3D ( 'NONE', #416, #778, #355 ) ;
#180 = AXIS2_PLACEMENT_3D ( 'NONE', #19, #644, #337 ) ;
#181 = CARTESIAN_POINT ( 'NONE',  ( -5.750000000000000000, 1.500000000000000000, 5.750000000000000000 ) ) ;
#182 = ORIENTED_EDGE ( 'NONE', *, *, #369, .T. ) ;
#183 = DIRECTION ( 'NONE',  ( -0.000000000000000000, -1.000000000000000000, 0.000000000000000000 ) ) ;
#184 = LINE ( 'NONE', #386, #61 ) ;
#185 = EDGE_CURVE ( 'NONE', #683, #341, #530, .T. ) ;
#186 = VERTEX_POINT ( 'NONE', #120 ) ;
#187 = CARTESIAN_POINT ( 'NONE',  ( -5.750000000000000000, 0.000000000000000000, -5.750000000000000000 ) ) ;
#188 = DIRECTION ( 'NONE',  ( 0.000000000000000000, 1.000000000000000000, -0.000000000000000000 ) ) ;
#189 = VERTEX_POINT ( 'NONE', #802 ) ;
#190 = CARTESIAN_POINT ( 'NONE',  ( 0.000000000000000000, 1.500000000000000000, 0.000000000000000000 ) ) ;
#191 = DIRECTION ( 'NONE',  ( 1.000000000000000000, -0.000000000000000000, 0.000000000000000000 ) ) ;
#192 = LOCAL_TIME ( 18, 3, 43.00000000000000000, #674 ) ;
#193 = AXIS2_PLACEMENT_3D ( 'NONE', #564, #9, #266 ) ;
#194 = ORIENTED_EDGE ( 'NONE', *, *, #153, .T. ) ;
#195 = EDGE_CURVE ( 'NONE', #712, #773, #218, .T. ) ;
#196 = DIRECTION ( 'NONE',  ( 0.000000000000000000, 0.000000000000000000, 1.000000000000000000 ) ) ;
#197 = LINE ( 'NONE', #375, #508 ) ;
#198 = DIRECTION ( 'NONE',  ( 0.000000000000000000, 0.000000000000000000, 1.000000000000000000 ) ) ;
#199 = EDGE_CURVE ( 'NONE', #487, #189, #272, .T. ) ;
#200 = VERTEX_POINT ( 'NONE', #617 ) ;
#201 = FACE_BOUND ( 'NONE', #388, .T. ) ;
#202 = CARTESIAN_POINT ( 'NONE',  ( -5.750000000000000000, 1.500000000000000000, -4.250000000000000000 ) ) ;
#203 = AXIS2_PLACEMENT_3D ( 'NONE', #88, #289, #41 ) ;
#204 = ORIENTED_EDGE ( 'NONE', *, *, #330, .T. ) ;
#205 = AXIS2_PLACEMENT_3D ( 'NONE', #140, #328, #456 ) ;
#206 = FACE_OUTER_BOUND ( 'NONE', #208, .T. ) ;
#207 = ADVANCED_FACE ( 'NONE', ( #107 ), #57, .T. ) ;
#208 = EDGE_LOOP ( 'NONE', ( #626, #78, #709, #450 ) ) ;
#209 = LINE ( 'NONE', #22, #497 ) ;
#210 = CARTESIAN_POINT ( 'NONE',  ( 5.750000000000000000, 1.500000000000000000, 9.000000000000000000 ) ) ;
#211 = DIRECTION ( 'NONE',  ( 0.000000000000000000, 1.000000000000000000, -0.000000000000000000 ) ) ;
#212 = DESIGN_CONTEXT ( 'detailed design', #263, 'design' ) ;
#213 = CARTESIAN_POINT ( 'NONE',  ( 5.750000000000000000, 0.000000000000000000, 9.000000000000000000 ) ) ;
#214 = ORIENTED_EDGE ( 'NONE', *, *, #338, .T. ) ;
#215 = APPROVAL ( #473, 'UNSPECIFIED' ) ;
#216 = DIRECTION ( 'NONE',  ( 0.000000000000000000, 1.000000000000000000, -0.000000000000000000 ) ) ;
#217 = ORIENTED_EDGE ( 'NONE', *, *, #462, .F. ) ;
#218 = CIRCLE ( 'NONE', #675, 1.499999999999999556 ) ;
#219 = DIRECTION ( 'NONE',  ( 0.000000000000000000, 0.000000000000000000, 1.000000000000000000 ) ) ;
#220 = AXIS2_PLACEMENT_3D ( 'NONE', #589, #397, #10 ) ;
#221 = CARTESIAN_POINT ( 'NONE',  ( 7.347880794884119736E-16, 3.000000000000002665, -6.000000000000000000 ) ) ;
#222 = EDGE_LOOP ( 'NONE', ( #318, #241 ) ) ;
#223 = CARTESIAN_POINT ( 'NONE',  ( 0.000000000000000000, 3.000000000000002665, 0.000000000000000000 ) ) ;
#224 = SHAPE_DEFINITION_REPRESENTATION ( #357, #788 ) ;
#225 = DIRECTION ( 'NONE',  ( 0.000000000000000000, 0.000000000000000000, -1.000000000000000000 ) ) ;
#226 = ORIENTED_EDGE ( 'NONE', *, *, #387, .F. ) ;
#227 = APPLICATION_CONTEXT ( 'configuration controlled 3d designs of mechanical parts and assemblies' ) ;
#228 = LINE ( 'NONE', #421, #137 ) ;
#229 = PERSON_AND_ORGANIZATION_ROLE ( 'design_supplier' ) ;
#230 = CYLINDRICAL_SURFACE ( 'NONE', #721, 1.500000000000000444 ) ;
#231 = VERTEX_POINT ( 'NONE', #252 ) ;
#232 = FACE_OUTER_BOUND ( 'NONE', #283, .T. ) ;
#233 = AXIS2_PLACEMENT_3D ( 'NONE', #256, #188, #106 ) ;
#234 = AXIS2_PLACEMENT_3D ( 'NONE', #281, #665, #713 ) ;
#235 = CARTESIAN_POINT ( 'NONE',  ( 0.000000000000000000, 3.000000000000002665, 0.000000000000000000 ) ) ;
#236 = APPROVAL_ROLE ( '' ) ;
#237 = CARTESIAN_POINT ( 'NONE',  ( 5.750000000000000000, 1.500000000000000000, -7.249999999999999112 ) ) ;
#238 = EDGE_LOOP ( 'NONE', ( #531, #194 ) ) ;
#239 = EDGE_CURVE ( 'NONE', #773, #672, #160, .T. ) ;
#240 = FACE_BOUND ( 'NONE', #742, .T. ) ;
#241 = ORIENTED_EDGE ( 'NONE', *, *, #23, .F. ) ;
#242 = DIRECTION ( 'NONE',  ( 0.000000000000000000, 1.000000000000000000, -0.000000000000000000 ) ) ;
#243 = PERSON_AND_ORGANIZATION ( #459, #367 ) ;
#244 = FACE_OUTER_BOUND ( 'NONE', #335, .T. ) ;
#245 = CC_DESIGN_PERSON_AND_ORGANIZATION_ASSIGNMENT ( #243, #40, ( #506 ) ) ;
#246 = DIRECTION ( 'NONE',  ( 0.000000000000000000, 0.000000000000000000, 1.000000000000000000 ) ) ;
#247 = ORIENTED_EDGE ( 'NONE', *, *, #369, .F. ) ;
#248 = DIRECTION ( 'NONE',  ( 0.000000000000000000, 1.000000000000000000, 0.000000000000000000 ) ) ;
#249 = VECTOR ( 'NONE', #727, 1000.000000000000000 ) ;
#250 = ADVANCED_FACE ( 'NONE', ( #240, #664, #103, #293, #232 ), #304, .F. ) ;
#251 = AXIS2_PLACEMENT_3D ( 'NONE', #441, #248, #254 ) ;
#252 = CARTESIAN_POINT ( 'NONE',  ( 5.510910596163088569E-16, 3.000000000000002665, 4.500000000000000000 ) ) ;
#253 = VERTEX_POINT ( 'NONE', #486 ) ;
#254 = DIRECTION ( 'NONE',  ( 0.000000000000000000, 0.000000000000000000, 1.000000000000000000 ) ) ;
#255 = DIRECTION ( 'NONE',  ( 0.000000000000000000, 0.000000000000000000, -1.000000000000000000 ) ) ;
#256 = CARTESIAN_POINT ( 'NONE',  ( 5.750000000000000000, 0.000000000000000000, -5.750000000000000000 ) ) ;
#257 = ORIENTED_EDGE ( 'NONE', *, *, #522, .T. ) ;
#258 = FACE_OUTER_BOUND ( 'NONE', #138, .T. ) ;
#259 = EDGE_CURVE ( 'NONE', #458, #84, #584, .T. ) ;
#260 = ORIENTED_EDGE ( 'NONE', *, *, #15, .T. ) ;
#261 = DIRECTION ( 'NONE',  ( -0.000000000000000000, -1.000000000000000000, 0.000000000000000000 ) ) ;
#262 = CARTESIAN_POINT ( 'NONE',  ( -9.000000000000000000, 1.500000000000000000, -5.750000000000000000 ) ) ;
#263 = APPLICATION_CONTEXT ( 'configuration controlled 3d designs of mechanical parts and assemblies' ) ;
#264 = CIRCLE ( 'NONE', #8, 1.499999999999999556 ) ;
#265 = EDGE_LOOP ( 'NONE', ( #622, #260 ) ) ;
#266 = DIRECTION ( 'NONE',  ( 0.000000000000000000, 0.000000000000000000, -1.000000000000000000 ) ) ;
#267 = FACE_OUTER_BOUND ( 'NONE', #352, .T. ) ;
#268 = CARTESIAN_POINT ( 'NONE',  ( 5.750000000000000000, 1.500000000000000000, 5.750000000000000000 ) ) ;
#269 = ORIENTED_EDGE ( 'NONE', *, *, #420, .T. ) ;
#270 = PLANE ( 'NONE',  #801 ) ;
#271 =( GEOMETRIC_REPRESENTATION_CONTEXT ( 3 ) GLOBAL_UNCERTAINTY_ASSIGNED_CONTEXT ( ( #66 ) ) GLOBAL_UNIT_ASSIGNED_CONTEXT ( ( #68, #568, #695 ) ) REPRESENTATION_CONTEXT ( 'NONE', 'WORKASPACE' ) );
#272 = CIRCLE ( 'NONE', #770, 1.500000000000000444 ) ;
#273 = EDGE_LOOP ( 'NONE', ( #6, #366, #656, #677 ) ) ;
#274 = CIRCLE ( 'NONE', #453, 1.500000000000000444 ) ;
#275 = DIRECTION ( 'NONE',  ( 0.000000000000000000, 0.000000000000000000, -1.000000000000000000 ) ) ;
#276 = CC_DESIGN_PERSON_AND_ORGANIZATION_ASSIGNMENT ( #422, #477, ( #689 ) ) ;
#277 = ORIENTED_EDGE ( 'NONE', *, *, #591, .T. ) ;
#278 = ORIENTED_EDGE ( 'NONE', *, *, #172, .T. ) ;
#279 = EDGE_CURVE ( 'NONE', #292, #13, #43, .T. ) ;
#280 = DIRECTION ( 'NONE',  ( 0.000000000000000000, 0.000000000000000000, -1.000000000000000000 ) ) ;
#281 = CARTESIAN_POINT ( 'NONE',  ( 5.750000000000000000, 1.500000000000000000, -5.750000000000000000 ) ) ;
#282 = AXIS2_PLACEMENT_3D ( 'NONE', #156, #147, #728 ) ;
#283 = EDGE_LOOP ( 'NONE', ( #359, #145, #123, #27, #182, #412, #345, #794 ) ) ;
#284 = VECTOR ( 'NONE', #351, 1000.000000000000000 ) ;
#285 = CIRCLE ( 'NONE', #547, 6.000000000000000000 ) ;
#286 = AXIS2_PLACEMENT_3D ( 'NONE', #756, #583, #329 ) ;
#287 = CARTESIAN_POINT ( 'NONE',  ( 5.510910596163088569E-16, 101.5000000000000000, 4.500000000000000000 ) ) ;
#288 = APPROVAL_STATUS ( 'not_yet_approved' ) ;
#289 = DIRECTION ( 'NONE',  ( 0.000000000000000000, 1.000000000000000000, -0.000000000000000000 ) ) ;
#290 = ORIENTED_EDGE ( 'NONE', *, *, #673, .F. ) ;
#291 = CARTESIAN_POINT ( 'NONE',  ( 5.750000000000000000, 1.500000000000000000, -4.250000000000000000 ) ) ;
#292 = VERTEX_POINT ( 'NONE', #548 ) ;
#293 = FACE_BOUND ( 'NONE', #718, .T. ) ;
#294 = DIRECTION ( 'NONE',  ( 0.000000000000000000, 0.000000000000000000, 1.000000000000000000 ) ) ;
#295 = FACE_OUTER_BOUND ( 'NONE', #382, .T. ) ;
#296 = VERTEX_POINT ( 'NONE', #117 ) ;
#297 = CARTESIAN_POINT ( 'NONE',  ( 9.000000000000000000, 1.500000000000000000, 0.000000000000000000 ) ) ;
#298 = ORIENTED_EDGE ( 'NONE', *, *, #34, .T. ) ;
#299 = VECTOR ( 'NONE', #600, 1000.000000000000000 ) ;
#300 = CARTESIAN_POINT ( 'NONE',  ( 0.000000000000000000, 3.000000000000002665, 6.000000000000000000 ) ) ;
#301 = APPROVAL_DATE_TIME ( #601, #136 ) ;
#302 = ADVANCED_FACE ( 'NONE', ( #244 ), #729, .F. ) ;
#303 = VERTEX_POINT ( 'NONE', #614 ) ;
#304 = PLANE ( 'NONE',  #75 ) ;
#305 = VERTEX_POINT ( 'NONE', #611 ) ;
#306 = DIRECTION ( 'NONE',  ( -0.000000000000000000, -1.000000000000000000, -0.000000000000000000 ) ) ;
#307 = ORIENTED_EDGE ( 'NONE', *, *, #185, .F. ) ;
#308 = EDGE_CURVE ( 'NONE', #13, #690, #51, .T. ) ;
#309 = DIRECTION ( 'NONE',  ( 0.000000000000000000, 0.000000000000000000, 1.000000000000000000 ) ) ;
#310 = DIRECTION ( 'NONE',  ( 0.000000000000000000, -0.000000000000000000, 1.000000000000000000 ) ) ;
#311 = ORIENTED_EDGE ( 'NONE', *, *, #12, .T. ) ;
#312 = AXIS2_PLACEMENT_3D ( 'NONE', #235, #242, #534 ) ;
#313 = FACE_OUTER_BOUND ( 'NONE', #797, .T. ) ;
#314 = CIRCLE ( 'NONE', #610, 4.500000000000000000 ) ;
#315 = ORIENTED_EDGE ( 'NONE', *, *, #462, .T. ) ;
#316 = DIRECTION ( 'NONE',  ( 0.000000000000000000, 1.000000000000000000, -0.000000000000000000 ) ) ;
#317 = DIRECTION ( 'NONE',  ( 0.000000000000000000, 0.000000000000000000, -1.000000000000000000 ) ) ;
#318 = ORIENTED_EDGE ( 'NONE', *, *, #195, .F. ) ;
#319 = DIRECTION ( 'NONE',  ( 0.000000000000000000, 1.000000000000000000, -0.000000000000000000 ) ) ;
#320 = EDGE_CURVE ( 'NONE', #712, #2, #228, .T. ) ;
#321 = ORIENTED_EDGE ( 'NONE', *, *, #259, .T. ) ;
#322 = CARTESIAN_POINT ( 'NONE',  ( 0.000000000000000000, 0.000000000000000000, -9.000000000000000000 ) ) ;
#323 = AXIS2_PLACEMENT_3D ( 'NONE', #792, #110, #565 ) ;
#324 = AXIS2_PLACEMENT_3D ( 'NONE', #268, #688, #744 ) ;
#325 = LINE ( 'NONE', #374, #518 ) ;
#326 = APPLICATION_PROTOCOL_DEFINITION ( 'international standard', 'config_control_design', 1994, #227 ) ;
#327 = EDGE_LOOP ( 'NONE', ( #588, #803, #593, #603 ) ) ;
#328 = DIRECTION ( 'NONE',  ( -0.000000000000000000, -1.000000000000000000, -0.000000000000000000 ) ) ;
#329 = DIRECTION ( 'NONE',  ( 0.000000000000000000, 0.000000000000000000, 1.000000000000000000 ) ) ;
#330 = EDGE_CURVE ( 'NONE', #159, #231, #561, .T. ) ;
#331 = CARTESIAN_POINT ( 'NONE',  ( 0.000000000000000000, 1.500000000000000000, 9.000000000000000000 ) ) ;
#332 = CARTESIAN_POINT ( 'NONE',  ( -5.750000000000000000, 1.500000000000000000, 5.750000000000000000 ) ) ;
#333 = EDGE_CURVE ( 'NONE', #159, #74, #755, .T. ) ;
#334 = AXIS2_PLACEMENT_3D ( 'NONE', #168, #105, #411 ) ;
#335 = EDGE_LOOP ( 'NONE', ( #16, #470, #141, #590 ) ) ;
#336 = CIRCLE ( 'NONE', #149, 3.249999999999999556 ) ;
#337 = DIRECTION ( 'NONE',  ( 0.000000000000000000, 0.000000000000000000, -1.000000000000000000 ) ) ;
#338 = EDGE_CURVE ( 'NONE', #292, #458, #91, .T. ) ;
#339 = VERTEX_POINT ( 'NONE', #108 ) ;
#340 = DIRECTION ( 'NONE',  ( 0.000000000000000000, 0.000000000000000000, 1.000000000000000000 ) ) ;
#341 = VERTEX_POINT ( 'NONE', #468 ) ;
#342 = CYLINDRICAL_SURFACE ( 'NONE', #380, 1.500000000000000444 ) ;
#343 = CALENDAR_DATE ( 2025, 4, 9 ) ;
#344 = AXIS2_PLACEMENT_3D ( 'NONE', #641, #451, #558 ) ;
#345 = ORIENTED_EDGE ( 'NONE', *, *, #92, .F. ) ;
#346 = CIRCLE ( 'NONE', #509, 1.499999999999999556 ) ;
#347 = TOROIDAL_SURFACE ( 'NONE', #800, 6.000000000000000000, 1.500000000000000000 ) ;
#348 = AXIS2_PLACEMENT_3D ( 'NONE', #527, #216, #219 ) ;
#349 = CARTESIAN_POINT ( 'NONE',  ( 9.000000000000000000, 1.500000000000000000, -5.750000000000000000 ) ) ;
#350 = CALENDAR_DATE ( 2025, 4, 9 ) ;
#351 = DIRECTION ( 'NONE',  ( 1.000000000000000000, -0.000000000000000000, 0.000000000000000000 ) ) ;
#352 = EDGE_LOOP ( 'NONE', ( #681, #702, #752, #307 ) ) ;
#353 = CARTESIAN_POINT ( 'NONE',  ( 0.000000000000000000, 3.000000000000002665, 0.000000000000000000 ) ) ;
#354 = EDGE_CURVE ( 'NONE', #790, #13, #336, .T. ) ;
#355 = DIRECTION ( 'NONE',  ( 0.000000000000000000, 0.000000000000000000, 1.000000000000000000 ) ) ;
#356 = APPROVAL_DATE_TIME ( #780, #215 ) ;
#357 = PRODUCT_DEFINITION_SHAPE ( 'NONE', 'NONE',  #506 ) ;
#358 = CARTESIAN_POINT ( 'NONE',  ( 5.750000000000000000, 0.000000000000000000, -9.000000000000000000 ) ) ;
#359 = ORIENTED_EDGE ( 'NONE', *, *, #172, .F. ) ;
#360 = DIRECTION ( 'NONE',  ( 0.000000000000000000, 1.000000000000000000, -0.000000000000000000 ) ) ;
#361 = DIRECTION ( 'NONE',  ( 0.000000000000000000, 0.000000000000000000, 1.000000000000000000 ) ) ;
#362 = EDGE_CURVE ( 'NONE', #373, #62, #573, .T. ) ;
#363 = COORDINATED_UNIVERSAL_TIME_OFFSET ( 0, 0, .AHEAD. ) ;
#364 = VERTEX_POINT ( 'NONE', #528 ) ;
#365 = DIRECTION ( 'NONE',  ( 0.000000000000000000, 0.000000000000000000, -1.000000000000000000 ) ) ;
#366 = ORIENTED_EDGE ( 'NONE', *, *, #795, .T. ) ;
#367 = ORGANIZATION ( 'UNSPECIFIED', 'UNSPECIFIED', '' ) ;
#368 = AXIS2_PLACEMENT_3D ( 'NONE', #627, #319, #196 ) ;
#369 = EDGE_CURVE ( 'NONE', #458, #690, #650, .T. ) ;
#370 = ORIENTED_EDGE ( 'NONE', *, *, #338, .F. ) ;
#371 = EDGE_CURVE ( 'NONE', #523, #231, #595, .T. ) ;
#372 = DIRECTION ( 'NONE',  ( 0.000000000000000000, 1.000000000000000000, -0.000000000000000000 ) ) ;
#373 = VERTEX_POINT ( 'NONE', #771 ) ;
#374 = CARTESIAN_POINT ( 'NONE',  ( -5.750000000000000000, 1.500000000000000000, 9.000000000000000000 ) ) ;
#375 = CARTESIAN_POINT ( 'NONE',  ( 5.750000000000000000, 1.500000000000000000, -9.000000000000000000 ) ) ;
#376 = ORIENTED_EDGE ( 'NONE', *, *, #446, .T. ) ;
#377 = LOCAL_TIME ( 18, 3, 43.00000000000000000, #363 ) ;
#378 = CARTESIAN_POINT ( 'NONE',  ( -5.750000000000000000, 1.500000000000000000, 9.000000000000000000 ) ) ;
#379 = DIRECTION ( 'NONE',  ( -0.000000000000000000, -1.000000000000000000, -0.000000000000000000 ) ) ;
#380 = AXIS2_PLACEMENT_3D ( 'NONE', #471, #537, #409 ) ;
#381 = ORIENTED_EDGE ( 'NONE', *, *, #645, .F. ) ;
#382 = EDGE_LOOP ( 'NONE', ( #555, #125, #494, #652 ) ) ;
#383 = LINE ( 'NONE', #322, #402 ) ;
#384 = EDGE_CURVE ( 'NONE', #373, #305, #152, .T. ) ;
#385 = ORIENTED_EDGE ( 'NONE', *, *, #449, .T. ) ;
#386 = CARTESIAN_POINT ( 'NONE',  ( -9.000000000000000000, 1.500000000000000000, 5.750000000000000000 ) ) ;
#387 = EDGE_CURVE ( 'NONE', #189, #341, #605, .T. ) ;
#388 = EDGE_LOOP ( 'NONE', ( #724, #399 ) ) ;
#389 = DIRECTION ( 'NONE',  ( 0.000000000000000000, 1.000000000000000000, -0.000000000000000000 ) ) ;
#390 = VECTOR ( 'NONE', #398, 1000.000000000000000 ) ;
#391 = EDGE_CURVE ( 'NONE', #231, #439, #264, .T. ) ;
#392 = CARTESIAN_POINT ( 'NONE',  ( 5.750000000000000000, 1.500000000000000000, -5.750000000000000000 ) ) ;
#393 = DIRECTION ( 'NONE',  ( 0.000000000000000000, 1.000000000000000000, -0.000000000000000000 ) ) ;
#394 = CYLINDRICAL_SURFACE ( 'NONE', #98, 1.499999999999999556 ) ;
#395 = EDGE_LOOP ( 'NONE', ( #763, #385 ) ) ;
#396 = ADVANCED_FACE ( 'NONE', ( #715 ), #791, .F. ) ;
#397 = DIRECTION ( 'NONE',  ( -0.000000000000000000, -1.000000000000000000, -0.000000000000000000 ) ) ;
#398 = DIRECTION ( 'NONE',  ( -0.000000000000000000, -1.000000000000000000, -0.000000000000000000 ) ) ;
#399 = ORIENTED_EDGE ( 'NONE', *, *, #199, .F. ) ;
#400 = AXIS2_PLACEMENT_3D ( 'NONE', #158, #101, #225 ) ;
#401 = ORIENTED_EDGE ( 'NONE', *, *, #50, .F. ) ;
#402 = VECTOR ( 'NONE', #191, 1000.000000000000000 ) ;
#403 = CARTESIAN_POINT ( 'NONE',  ( -5.750000000000000000, 0.000000000000000000, 7.250000000000000888 ) ) ;
#404 = PRODUCT_RELATED_PRODUCT_CATEGORY ( 'detail', '', ( #689 ) ) ;
#405 = VERTEX_POINT ( 'NONE', #483 ) ;
#406 = DIRECTION ( 'NONE',  ( -0.000000000000000000, -1.000000000000000000, -0.000000000000000000 ) ) ;
#407 = CALENDAR_DATE ( 2025, 4, 9 ) ;
#408 = ORIENTED_EDGE ( 'NONE', *, *, #488, .F. ) ;
#409 = DIRECTION ( 'NONE',  ( 0.000000000000000000, 0.000000000000000000, -1.000000000000000000 ) ) ;
#410 = SECURITY_CLASSIFICATION_LEVEL ( 'unclassified' ) ;
#411 = DIRECTION ( 'NONE',  ( 0.000000000000000000, 0.000000000000000000, 1.000000000000000000 ) ) ;
#412 = ORIENTED_EDGE ( 'NONE', *, *, #606, .F. ) ;
#413 = AXIS2_PLACEMENT_3D ( 'NONE', #221, #173, #99 ) ;
#414 = CIRCLE ( 'NONE', #635, 4.500000000000000000 ) ;
#415 = CARTESIAN_POINT ( 'NONE',  ( -5.750000000000000000, 1.500000000000000000, -4.250000000000000000 ) ) ;
#416 = CARTESIAN_POINT ( 'NONE',  ( 5.750000000000000000, 1.500000000000000000, -5.750000000000000000 ) ) ;
#417 = FACE_OUTER_BOUND ( 'NONE', #578, .T. ) ;
#418 = CARTESIAN_POINT ( 'NONE',  ( 9.000000000000000000, 1.500000000000000000, 5.750000000000000000 ) ) ;
#419 = DIRECTION ( 'NONE',  ( 0.000000000000000000, 0.000000000000000000, 1.000000000000000000 ) ) ;
#420 = EDGE_CURVE ( 'NONE', #231, #159, #314, .T. ) ;
#421 = CARTESIAN_POINT ( 'NONE',  ( -5.750000000000000000, 1.500000000000000000, -7.249999999999999112 ) ) ;
#422 = PERSON_AND_ORGANIZATION ( #459, #367 ) ;
#423 = CARTESIAN_POINT ( 'NONE',  ( 5.750000000000000000, 1.500000000000000000, 9.000000000000000000 ) ) ;
#424 = VERTEX_POINT ( 'NONE', #730 ) ;
#425 = DIRECTION ( 'NONE',  ( 0.000000000000000000, 1.000000000000000000, -0.000000000000000000 ) ) ;
#426 = ORIENTED_EDGE ( 'NONE', *, *, #64, .F. ) ;
#427 = ADVANCED_FACE ( 'NONE', ( #157 ), #342, .F. ) ;
#428 = PERSON_AND_ORGANIZATION ( #459, #367 ) ;
#429 = LINE ( 'NONE', #54, #609 ) ;
#430 = EDGE_LOOP ( 'NONE', ( #277, #570, #436, #746 ) ) ;
#431 = CIRCLE ( 'NONE', #128, 3.249999999999999556 ) ;
#432 = DIRECTION ( 'NONE',  ( 0.000000000000000000, 1.000000000000000000, -0.000000000000000000 ) ) ;
#433 = ORIENTED_EDGE ( 'NONE', *, *, #371, .T. ) ;
#434 = DIRECTION ( 'NONE',  ( 0.000000000000000000, 0.000000000000000000, 1.000000000000000000 ) ) ;
#435 = DIRECTION ( 'NONE',  ( -0.000000000000000000, -1.000000000000000000, -0.000000000000000000 ) ) ;
#436 = ORIENTED_EDGE ( 'NONE', *, *, #34, .F. ) ;
#437 = DIRECTION ( 'NONE',  ( 0.000000000000000000, 1.000000000000000000, -0.000000000000000000 ) ) ;
#438 = DIRECTION ( 'NONE',  ( -1.000000000000000000, 0.000000000000000000, -0.000000000000000000 ) ) ;
#439 = VERTEX_POINT ( 'NONE', #657 ) ;
#440 = EDGE_CURVE ( 'NONE', #62, #373, #633, .T. ) ;
#441 = CARTESIAN_POINT ( 'NONE',  ( 0.000000000000000000, 101.5000000000000000, 0.000000000000000000 ) ) ;
#442 = AXIS2_PLACEMENT_3D ( 'NONE', #65, #317, #438 ) ;
#443 = LINE ( 'NONE', #513, #592 ) ;
#444 = AXIS2_PLACEMENT_3D ( 'NONE', #56, #183, #434 ) ;
#445 = ORIENTED_EDGE ( 'NONE', *, *, #642, .F. ) ;
#446 = EDGE_CURVE ( 'NONE', #62, #364, #719, .T. ) ;
#447 = CARTESIAN_POINT ( 'NONE',  ( 5.750000000000000000, 0.000000000000000000, 5.750000000000000000 ) ) ;
#448 = CARTESIAN_POINT ( 'NONE',  ( 5.750000000000000000, 0.000000000000000000, 5.750000000000000000 ) ) ;
#449 = EDGE_CURVE ( 'NONE', #74, #439, #285, .T. ) ;
#450 = ORIENTED_EDGE ( 'NONE', *, *, #320, .F. ) ;
#451 = DIRECTION ( 'NONE',  ( 0.000000000000000000, 1.000000000000000000, -0.000000000000000000 ) ) ;
#452 = AXIS2_PLACEMENT_3D ( 'NONE', #170, #111, #365 ) ;
#453 = AXIS2_PLACEMENT_3D ( 'NONE', #135, #389, #634 ) ;
#454 = CIRCLE ( 'NONE', #286, 1.499999999999999556 ) ;
#455 = ORIENTED_EDGE ( 'NONE', *, *, #5, .F. ) ;
#456 = DIRECTION ( 'NONE',  ( 0.000000000000000000, 0.000000000000000000, -1.000000000000000000 ) ) ;
#457 = CARTESIAN_POINT ( 'NONE',  ( -5.750000000000000000, 1.500000000000000000, -5.750000000000000000 ) ) ;
#458 = VERTEX_POINT ( 'NONE', #678 ) ;
#459 = PERSON ( 'UNSPECIFIED', 'UNSPECIFIED', 'UNSPECIFIED', ('UNSPECIFIED'), ('UNSPECIFIED'), ('UNSPECIFIED') ) ;
#460 = EDGE_LOOP ( 'NONE', ( #217, #433, #269, #155 ) ) ;
#461 = CARTESIAN_POINT ( 'NONE',  ( 5.750000000000000000, 0.000000000000000000, 7.250000000000000888 ) ) ;
#462 = EDGE_CURVE ( 'NONE', #523, #102, #647, .T. ) ;
#463 = APPROVAL_PERSON_ORGANIZATION ( #551, #215, #661 ) ;
#464 = AXIS2_PLACEMENT_3D ( 'NONE', #353, #599, #491 ) ;
#465 = VERTEX_POINT ( 'NONE', #378 ) ;
#466 = CIRCLE ( 'NONE', #47, 1.500000000000000444 ) ;
#467 = CC_DESIGN_PERSON_AND_ORGANIZATION_ASSIGNMENT ( #116, #229, ( #720 ) ) ;
#468 = CARTESIAN_POINT ( 'NONE',  ( -5.750000000000000000, 0.000000000000000000, 4.249999999999998224 ) ) ;
#469 = CALENDAR_DATE ( 2025, 4, 9 ) ;
#470 = ORIENTED_EDGE ( 'NONE', *, *, #384, .T. ) ;
#471 = CARTESIAN_POINT ( 'NONE',  ( 5.750000000000000000, 1.500000000000000000, 5.750000000000000000 ) ) ;
#472 = ADVANCED_FACE ( 'NONE', ( #113 ), #119, .T. ) ;
#473 = APPROVAL_STATUS ( 'not_yet_approved' ) ;
#474 = CARTESIAN_POINT ( 'NONE',  ( -9.000000000000000000, 1.500000000000000000, 0.000000000000000000 ) ) ;
#475 = ORIENTED_EDGE ( 'NONE', *, *, #279, .T. ) ;
#476 = DIRECTION ( 'NONE',  ( 0.000000000000000000, 0.000000000000000000, 1.000000000000000000 ) ) ;
#477 = PERSON_AND_ORGANIZATION_ROLE ( 'design_owner' ) ;
#478 = LINE ( 'NONE', #602, #46 ) ;
#479 = ORIENTED_EDGE ( 'NONE', *, *, #308, .T. ) ;
#480 = VECTOR ( 'NONE', #37, 1000.000000000000000 ) ;
#481 = AXIS2_PLACEMENT_3D ( 'NONE', #687, #498, #616 ) ;
#482 = CARTESIAN_POINT ( 'NONE',  ( 0.000000000000000000, 0.000000000000000000, 0.000000000000000000 ) ) ;
#483 = CARTESIAN_POINT ( 'NONE',  ( -9.000000000000000000, 0.000000000000000000, 5.750000000000000000 ) ) ;
#484 = LINE ( 'NONE', #423, #249 ) ;
#485 = PLANE ( 'NONE',  #442 ) ;
#486 = CARTESIAN_POINT ( 'NONE',  ( -5.750000000000000000, 0.000000000000000000, 9.000000000000000000 ) ) ;
#487 = VERTEX_POINT ( 'NONE', #739 ) ;
#488 = EDGE_CURVE ( 'NONE', #439, #74, #660, .T. ) ;
#489 = DIRECTION ( 'NONE',  ( 0.000000000000000000, 1.000000000000000000, -0.000000000000000000 ) ) ;
#490 = PERSON_AND_ORGANIZATION ( #459, #367 ) ;
#491 = DIRECTION ( 'NONE',  ( 0.000000000000000000, 0.000000000000000000, 1.000000000000000000 ) ) ;
#492 = ORIENTED_EDGE ( 'NONE', *, *, #279, .F. ) ;
#493 = CARTESIAN_POINT ( 'NONE',  ( -9.000000000000000000, 0.000000000000000000, 0.000000000000000000 ) ) ;
#494 = ORIENTED_EDGE ( 'NONE', *, *, #320, .T. ) ;
#495 = CIRCLE ( 'NONE', #697, 3.249999999999999556 ) ;
#496 = AXIS2_PLACEMENT_3D ( 'NONE', #762, #211, #639 ) ;
#497 = VECTOR ( 'NONE', #86, 1000.000000000000000 ) ;
#498 = DIRECTION ( 'NONE',  ( -0.000000000000000000, -1.000000000000000000, -0.000000000000000000 ) ) ;
#499 = CARTESIAN_POINT ( 'NONE',  ( -5.750000000000000000, 0.000000000000000000, 5.750000000000000000 ) ) ;
#500 = ORIENTED_EDGE ( 'NONE', *, *, #440, .F. ) ;
#501 = LINE ( 'NONE', #262, #139 ) ;
#502 = DIRECTION ( 'NONE',  ( -0.000000000000000000, -1.000000000000000000, -0.000000000000000000 ) ) ;
#503 = CARTESIAN_POINT ( 'NONE',  ( -5.750000000000000000, 1.500000000000000000, -5.750000000000000000 ) ) ;
#504 = ORIENTED_EDGE ( 'NONE', *, *, #50, .T. ) ;
#505 = PLANE ( 'NONE',  #193 ) ;
#506 = PRODUCT_DEFINITION ( 'UNKNOWN', '', #720, #212 ) ;
#507 = ORIENTED_EDGE ( 'NONE', *, *, #391, .F. ) ;
#508 = VECTOR ( 'NONE', #502, 1000.000000000000000 ) ;
#509 = AXIS2_PLACEMENT_3D ( 'NONE', #169, #608, #49 ) ;
#510 = FACE_OUTER_BOUND ( 'NONE', #706, .T. ) ;
#511 = ORIENTED_EDGE ( 'NONE', *, *, #574, .T. ) ;
#512 = EDGE_CURVE ( 'NONE', #629, #754, #736, .T. ) ;
#513 = CARTESIAN_POINT ( 'NONE',  ( 0.000000000000000000, 101.5000000000000000, -4.500000000000000000 ) ) ;
#514 = FACE_BOUND ( 'NONE', #395, .T. ) ;
#515 = CARTESIAN_POINT ( 'NONE',  ( 0.000000000000000000, 101.5000000000000000, 0.000000000000000000 ) ) ;
#516 = EDGE_LOOP ( 'NONE', ( #787, #525, #376, #112 ) ) ;
#517 = DIRECTION ( 'NONE',  ( 0.000000000000000000, 0.000000000000000000, 1.000000000000000000 ) ) ;
#518 = VECTOR ( 'NONE', #620, 1000.000000000000000 ) ;
#519 = ORIENTED_EDGE ( 'NONE', *, *, #538, .F. ) ;
#520 = CYLINDRICAL_SURFACE ( 'NONE', #700, 1.500000000000000444 ) ;
#521 = DIRECTION ( 'NONE',  ( -0.000000000000000000, -1.000000000000000000, -0.000000000000000000 ) ) ;
#522 = EDGE_CURVE ( 'NONE', #102, #523, #414, .T. ) ;
#523 = VERTEX_POINT ( 'NONE', #581 ) ;
#524 = FACE_OUTER_BOUND ( 'NONE', #714, .T. ) ;
#525 = ORIENTED_EDGE ( 'NONE', *, *, #362, .T. ) ;
#526 = ADVANCED_FACE ( 'NONE', ( #63 ), #505, .T. ) ;
#527 = CARTESIAN_POINT ( 'NONE',  ( -5.750000000000000000, 0.000000000000000000, -5.750000000000000000 ) ) ;
#528 = CARTESIAN_POINT ( 'NONE',  ( 5.750000000000000000, 0.000000000000000000, -7.249999999999999112 ) ) ;
#529 = AXIS2_PLACEMENT_3D ( 'NONE', #732, #789, #310 ) ;
#530 = CIRCLE ( 'NONE', #571, 1.500000000000000444 ) ;
#531 = ORIENTED_EDGE ( 'NONE', *, *, #538, .T. ) ;
#532 = CIRCLE ( 'NONE', #368, 3.249999999999999556 ) ;
#533 = EDGE_CURVE ( 'NONE', #684, #405, #184, .T. ) ;
#534 = DIRECTION ( 'NONE',  ( 0.000000000000000000, 0.000000000000000000, 1.000000000000000000 ) ) ;
#535 = PERSON_AND_ORGANIZATION_ROLE ( 'creator' ) ;
#536 = FACE_OUTER_BOUND ( 'NONE', #327, .T. ) ;
#537 = DIRECTION ( 'NONE',  ( -0.000000000000000000, -1.000000000000000000, -0.000000000000000000 ) ) ;
#538 = EDGE_CURVE ( 'NONE', #186, #733, #466, .T. ) ;
#539 = CARTESIAN_POINT ( 'NONE',  ( -5.750000000000000000, 1.500000000000000000, 5.750000000000000000 ) ) ;
#540 = ORIENTED_EDGE ( 'NONE', *, *, #39, .T. ) ;
#541 = DIRECTION ( 'NONE',  ( 0.000000000000000000, 0.000000000000000000, 1.000000000000000000 ) ) ;
#542 = CARTESIAN_POINT ( 'NONE',  ( 5.750000000000000000, 1.500000000000000000, -7.249999999999999112 ) ) ;
#543 = PERSON_AND_ORGANIZATION_ROLE ( 'classification_officer' ) ;
#544 = DIRECTION ( 'NONE',  ( 0.000000000000000000, 0.000000000000000000, 1.000000000000000000 ) ) ;
#545 = EDGE_LOOP ( 'NONE', ( #96, #32, #519, #738 ) ) ;
#546 = CIRCLE ( 'NONE', #323, 1.500000000000000444 ) ;
#547 = AXIS2_PLACEMENT_3D ( 'NONE', #190, #261, #309 ) ;
#548 = CARTESIAN_POINT ( 'NONE',  ( 9.000000000000000000, 1.500000000000000000, -5.750000000000000000 ) ) ;
#549 = ORIENTED_EDGE ( 'NONE', *, *, #39, .F. ) ;
#550 = DIRECTION ( 'NONE',  ( -1.000000000000000000, 0.000000000000000000, 0.000000000000000000 ) ) ;
#551 = PERSON_AND_ORGANIZATION ( #459, #367 ) ;
#552 = CARTESIAN_POINT ( 'NONE',  ( -5.750000000000000000, 0.000000000000000000, -7.249999999999999112 ) ) ;
#553 = CC_DESIGN_DATE_AND_TIME_ASSIGNMENT ( #596, #776, ( #60 ) ) ;
#554 = LINE ( 'NONE', #493, #114 ) ;
#555 = ORIENTED_EDGE ( 'NONE', *, *, #239, .F. ) ;
#556 = CARTESIAN_POINT ( 'NONE',  ( 5.750000000000000000, 0.000000000000000000, 5.750000000000000000 ) ) ;
#557 = ORIENTED_EDGE ( 'NONE', *, *, #645, .T. ) ;
#558 = DIRECTION ( 'NONE',  ( 0.000000000000000000, 0.000000000000000000, 1.000000000000000000 ) ) ;
#559 = CARTESIAN_POINT ( 'NONE',  ( -5.750000000000000000, 1.500000000000000000, -5.750000000000000000 ) ) ;
#560 = EDGE_LOOP ( 'NONE', ( #567, #36 ) ) ;
#561 = CIRCLE ( 'NONE', #312, 4.500000000000000000 ) ;
#562 = DIRECTION ( 'NONE',  ( -0.000000000000000000, -1.000000000000000000, -0.000000000000000000 ) ) ;
#563 = ORIENTED_EDGE ( 'NONE', *, *, #5, .T. ) ;
#564 = CARTESIAN_POINT ( 'NONE',  ( 9.000000000000000000, 1.500000000000000000, 0.000000000000000000 ) ) ;
#565 = DIRECTION ( 'NONE',  ( 0.000000000000000000, 0.000000000000000000, 1.000000000000000000 ) ) ;
#566 = EDGE_CURVE ( 'NONE', #754, #733, #122, .T. ) ;
#567 = ORIENTED_EDGE ( 'NONE', *, *, #512, .F. ) ;
#568 =( NAMED_UNIT ( * ) PLANE_ANGLE_UNIT ( ) SI_UNIT ( $, .RADIAN. ) );
#569 = ADVANCED_FACE ( 'NONE', ( #313 ), #804, .F. ) ;
#570 = ORIENTED_EDGE ( 'NONE', *, *, #574, .F. ) ;
#571 = AXIS2_PLACEMENT_3D ( 'NONE', #166, #432, #419 ) ;
#572 = DIRECTION ( 'NONE',  ( 0.000000000000000000, 0.000000000000000000, 1.000000000000000000 ) ) ;
#573 = CIRCLE ( 'NONE', #234, 1.499999999999999556 ) ;
#574 = EDGE_CURVE ( 'NONE', #303, #200, #501, .T. ) ;
#575 = DIRECTION ( 'NONE',  ( -0.000000000000000000, -1.000000000000000000, -0.000000000000000000 ) ) ;
#576 = DIRECTION ( 'NONE',  ( 0.000000000000000000, 1.000000000000000000, 0.000000000000000000 ) ) ;
#577 = CARTESIAN_POINT ( 'NONE',  ( -9.000000000000000000, 1.500000000000000000, 0.000000000000000000 ) ) ;
#578 = EDGE_LOOP ( 'NONE', ( #42, #171, #455, #226 ) ) ;
#579 = CYLINDRICAL_SURFACE ( 'NONE', #180, 3.249999999999999556 ) ;
#580 = LINE ( 'NONE', #142, #390 ) ;
#581 = CARTESIAN_POINT ( 'NONE',  ( 5.510910596163088569E-16, 101.5000000000000000, 4.500000000000000000 ) ) ;
#582 = ORIENTED_EDGE ( 'NONE', *, *, #150, .T. ) ;
#583 = DIRECTION ( 'NONE',  ( 0.000000000000000000, 1.000000000000000000, -0.000000000000000000 ) ) ;
#584 = CIRCLE ( 'NONE', #659, 3.249999999999999556 ) ;
#585 = AXIS2_PLACEMENT_3D ( 'NONE', #35, #104, #774 ) ;
#586 = ORIENTED_EDGE ( 'NONE', *, *, #144, .F. ) ;
#587 = DIRECTION ( 'NONE',  ( 0.000000000000000000, 0.000000000000000000, -1.000000000000000000 ) ) ;
#588 = ORIENTED_EDGE ( 'NONE', *, *, #333, .F. ) ;
#589 = CARTESIAN_POINT ( 'NONE',  ( 0.000000000000000000, 101.5000000000000000, 0.000000000000000000 ) ) ;
#590 = ORIENTED_EDGE ( 'NONE', *, *, #446, .F. ) ;
#591 = EDGE_CURVE ( 'NONE', #339, #200, #431, .T. ) ;
#592 = VECTOR ( 'NONE', #131, 1000.000000000000000 ) ;
#593 = ORIENTED_EDGE ( 'NONE', *, *, #391, .T. ) ;
#594 = CIRCLE ( 'NONE', #348, 1.499999999999999556 ) ;
#595 = LINE ( 'NONE', #287, #699 ) ;
#596 = DATE_AND_TIME ( #350, #377 ) ;
#597 = DIRECTION ( 'NONE',  ( 0.000000000000000000, 0.000000000000000000, -1.000000000000000000 ) ) ;
#598 = ORIENTED_EDGE ( 'NONE', *, *, #354, .T. ) ;
#599 = DIRECTION ( 'NONE',  ( 0.000000000000000000, 1.000000000000000000, -0.000000000000000000 ) ) ;
#600 = DIRECTION ( 'NONE',  ( -0.000000000000000000, -1.000000000000000000, -0.000000000000000000 ) ) ;
#601 = DATE_AND_TIME ( #343, #17 ) ;
#602 = CARTESIAN_POINT ( 'NONE',  ( 0.000000000000000000, 0.000000000000000000, 9.000000000000000000 ) ) ;
#603 = ORIENTED_EDGE ( 'NONE', *, *, #449, .F. ) ;
#604 = DIRECTION ( 'NONE',  ( 0.000000000000000000, 0.000000000000000000, 1.000000000000000000 ) ) ;
#605 = LINE ( 'NONE', #653, #28 ) ;
#606 = EDGE_CURVE ( 'NONE', #24, #690, #76, .T. ) ;
#607 = APPLICATION_PROTOCOL_DEFINITION ( 'international standard', 'config_control_design', 1994, #263 ) ;
#608 = DIRECTION ( 'NONE',  ( 0.000000000000000000, 1.000000000000000000, -0.000000000000000000 ) ) ;
#609 = VECTOR ( 'NONE', #306, 1000.000000000000000 ) ;
#610 = AXIS2_PLACEMENT_3D ( 'NONE', #223, #489, #294 ) ;
#611 = CARTESIAN_POINT ( 'NONE',  ( 5.750000000000000000, 0.000000000000000000, -4.250000000000000000 ) ) ;
#612 = ORIENTED_EDGE ( 'NONE', *, *, #623, .F. ) ;
#613 = DATE_AND_TIME ( #407, #192 ) ;
#614 = CARTESIAN_POINT ( 'NONE',  ( -9.000000000000000000, 1.500000000000000000, -5.750000000000000000 ) ) ;
#615 = ORIENTED_EDGE ( 'NONE', *, *, #92, .T. ) ;
#616 = DIRECTION ( 'NONE',  ( 0.000000000000000000, 0.000000000000000000, -1.000000000000000000 ) ) ;
#617 = CARTESIAN_POINT ( 'NONE',  ( -9.000000000000000000, 0.000000000000000000, -5.750000000000000000 ) ) ;
#618 = EDGE_LOOP ( 'NONE', ( #615, #663, #445, #643 ) ) ;
#619 = ADVANCED_FACE ( 'NONE', ( #258 ), #630, .T. ) ;
#620 = DIRECTION ( 'NONE',  ( -0.000000000000000000, -1.000000000000000000, -0.000000000000000000 ) ) ;
#621 = LOCAL_TIME ( 18, 3, 43.00000000000000000, #174 ) ;
#622 = ORIENTED_EDGE ( 'NONE', *, *, #764, .T. ) ;
#623 = EDGE_CURVE ( 'NONE', #339, #84, #383, .T. ) ;
#624 = DIRECTION ( 'NONE',  ( 0.000000000000000000, 0.000000000000000000, 1.000000000000000000 ) ) ;
#625 = FACE_OUTER_BOUND ( 'NONE', #121, .T. ) ;
#626 = ORIENTED_EDGE ( 'NONE', *, *, #195, .T. ) ;
#627 = CARTESIAN_POINT ( 'NONE',  ( -5.750000000000000000, 1.500000000000000000, 5.750000000000000000 ) ) ;
#628 = EDGE_CURVE ( 'NONE', #102, #159, #443, .T. ) ;
#629 = VERTEX_POINT ( 'NONE', #694 ) ;
#630 = CYLINDRICAL_SURFACE ( 'NONE', #324, 3.249999999999999556 ) ;
#631 = APPROVAL_PERSON_ORGANIZATION ( #490, #136, #31 ) ;
#632 = CLOSED_SHELL ( 'NONE', ( #651, #711, #73, #302, #396, #779, #569, #769, #725, #619, #526, #472, #1, #53, #427, #679, #734, #707, #758, #250, #701, #207, #133 ) ) ;
#633 = CIRCLE ( 'NONE', #179, 1.499999999999999556 ) ;
#634 = DIRECTION ( 'NONE',  ( 0.000000000000000000, 0.000000000000000000, 1.000000000000000000 ) ) ;
#635 = AXIS2_PLACEMENT_3D ( 'NONE', #515, #576, #11 ) ;
#636 = ORIENTED_EDGE ( 'NONE', *, *, #522, .F. ) ;
#637 = FACE_BOUND ( 'NONE', #81, .T. ) ;
#638 = FACE_OUTER_BOUND ( 'NONE', #132, .T. ) ;
#639 = DIRECTION ( 'NONE',  ( 0.000000000000000000, 0.000000000000000000, 1.000000000000000000 ) ) ;
#640 = CARTESIAN_POINT ( 'NONE',  ( -9.000000000000000000, 1.500000000000000000, 5.750000000000000000 ) ) ;
#641 = CARTESIAN_POINT ( 'NONE',  ( 5.750000000000000000, 1.500000000000000000, 5.750000000000000000 ) ) ;
#642 = EDGE_CURVE ( 'NONE', #465, #790, #124, .T. ) ;
#643 = ORIENTED_EDGE ( 'NONE', *, *, #673, .T. ) ;
#644 = DIRECTION ( 'NONE',  ( -0.000000000000000000, -1.000000000000000000, -0.000000000000000000 ) ) ;
#645 = EDGE_CURVE ( 'NONE', #684, #465, #532, .T. ) ;
#646 = AXIS2_PLACEMENT_3D ( 'NONE', #503, #741, #705 ) ;
#647 = CIRCLE ( 'NONE', #251, 4.500000000000000000 ) ;
#648 = ORIENTED_EDGE ( 'NONE', *, *, #109, .T. ) ;
#649 = FACE_OUTER_BOUND ( 'NONE', #460, .T. ) ;
#650 = LINE ( 'NONE', #38, #757 ) ;
#651 = ADVANCED_FACE ( 'NONE', ( #510 ), #347, .F. ) ;
#652 = ORIENTED_EDGE ( 'NONE', *, *, #753, .F. ) ;
#653 = CARTESIAN_POINT ( 'NONE',  ( -5.750000000000000000, 1.500000000000000000, 4.249999999999999112 ) ) ;
#654 = CALENDAR_DATE ( 2025, 4, 9 ) ;
#655 = EDGE_CURVE ( 'NONE', #189, #487, #274, .T. ) ;
#656 = ORIENTED_EDGE ( 'NONE', *, *, #785, .T. ) ;
#657 = CARTESIAN_POINT ( 'NONE',  ( 0.000000000000000000, 1.500000000000001332, 6.000000000000000000 ) ) ;
#658 = CC_DESIGN_APPROVAL ( #215, ( #506 ) ) ;
#659 = AXIS2_PLACEMENT_3D ( 'NONE', #175, #360, #604 ) ;
#660 = CIRCLE ( 'NONE', #444, 6.000000000000000000 ) ;
#661 = APPROVAL_ROLE ( '' ) ;
#662 = DIRECTION ( 'NONE',  ( 1.000000000000000000, -0.000000000000000000, 0.000000000000000000 ) ) ;
#663 = ORIENTED_EDGE ( 'NONE', *, *, #109, .F. ) ;
#664 = FACE_BOUND ( 'NONE', #265, .T. ) ;
#665 = DIRECTION ( 'NONE',  ( 0.000000000000000000, 1.000000000000000000, -0.000000000000000000 ) ) ;
#666 = APPROVAL_DATE_TIME ( #163, #69 ) ;
#667 = LINE ( 'NONE', #474, #85 ) ;
#668 = ORIENTED_EDGE ( 'NONE', *, *, #308, .F. ) ;
#669 = DIRECTION ( 'NONE',  ( 0.000000000000000000, 0.000000000000000000, 1.000000000000000000 ) ) ;
#670 = ORIENTED_EDGE ( 'NONE', *, *, #354, .F. ) ;
#671 = DIRECTION ( 'NONE',  ( 0.000000000000000000, 0.000000000000000000, 1.000000000000000000 ) ) ;
#672 = VERTEX_POINT ( 'NONE', #77 ) ;
#673 = EDGE_CURVE ( 'NONE', #465, #253, #325, .T. ) ;
#674 = COORDINATED_UNIVERSAL_TIME_OFFSET ( 0, 0, .AHEAD. ) ;
#675 = AXIS2_PLACEMENT_3D ( 'NONE', #559, #680, #541 ) ;
#676 = DIRECTION ( 'NONE',  ( 0.000000000000000000, 1.000000000000000000, -0.000000000000000000 ) ) ;
#677 = ORIENTED_EDGE ( 'NONE', *, *, #153, .F. ) ;
#678 = CARTESIAN_POINT ( 'NONE',  ( 9.000000000000000000, 0.000000000000000000, -5.750000000000000000 ) ) ;
#679 = ADVANCED_FACE ( 'NONE', ( #59 ), #394, .F. ) ;
#680 = DIRECTION ( 'NONE',  ( 0.000000000000000000, 1.000000000000000000, -0.000000000000000000 ) ) ;
#681 = ORIENTED_EDGE ( 'NONE', *, *, #747, .F. ) ;
#682 = CARTESIAN_POINT ( 'NONE',  ( 0.000000000000000000, 3.000000000000002665, 0.000000000000000000 ) ) ;
#683 = VERTEX_POINT ( 'NONE', #403 ) ;
#684 = VERTEX_POINT ( 'NONE', #640 ) ;
#685 = EDGE_LOOP ( 'NONE', ( #257, #315 ) ) ;
#686 = VECTOR ( 'NONE', #743, 1000.000000000000000 ) ;
#687 = CARTESIAN_POINT ( 'NONE',  ( 5.750000000000000000, 1.500000000000000000, -5.750000000000000000 ) ) ;
#688 = DIRECTION ( 'NONE',  ( -0.000000000000000000, -1.000000000000000000, -0.000000000000000000 ) ) ;
#689 = PRODUCT ( 'drone_foot', 'drone_foot', '', ( #33 ) ) ;
#690 = VERTEX_POINT ( 'NONE', #767 ) ;
#691 = CC_DESIGN_PERSON_AND_ORGANIZATION_ASSIGNMENT ( #100, #543, ( #60 ) ) ;
#692 = ORIENTED_EDGE ( 'NONE', *, *, #606, .T. ) ;
#693 = CARTESIAN_POINT ( 'NONE',  ( 5.750000000000000000, 1.500000000000000000, 7.250000000000000888 ) ) ;
#694 = CARTESIAN_POINT ( 'NONE',  ( 5.750000000000000000, 1.500000000000000000, 4.249999999999998224 ) ) ;
#695 =( NAMED_UNIT ( * ) SI_UNIT ( $, .STERADIAN. ) SOLID_ANGLE_UNIT ( ) );
#696 = ORIENTED_EDGE ( 'NONE', *, *, #642, .T. ) ;
#697 = AXIS2_PLACEMENT_3D ( 'NONE', #499, #425, #737 ) ;
#698 = CARTESIAN_POINT ( 'NONE',  ( 0.000000000000000000, 1.500000000000000000, 0.000000000000000000 ) ) ;
#699 = VECTOR ( 'NONE', #162, 1000.000000000000000 ) ;
#700 = AXIS2_PLACEMENT_3D ( 'NONE', #760, #710, #587 ) ;
#701 = ADVANCED_FACE ( 'NONE', ( #524 ), #708, .T. ) ;
#702 = ORIENTED_EDGE ( 'NONE', *, *, #199, .T. ) ;
#703 = CARTESIAN_POINT ( 'NONE',  ( -5.750000000000000000, 1.500000000000000000, -7.249999999999999112 ) ) ;
#704 = DIRECTION ( 'NONE',  ( 0.000000000000000000, 0.000000000000000000, -1.000000000000000000 ) ) ;
#705 = DIRECTION ( 'NONE',  ( 0.000000000000000000, 0.000000000000000000, 1.000000000000000000 ) ) ;
#706 = EDGE_LOOP ( 'NONE', ( #759, #118, #408, #507 ) ) ;
#707 = ADVANCED_FACE ( 'NONE', ( #143 ), #579, .T. ) ;
#708 = CYLINDRICAL_SURFACE ( 'NONE', #205, 4.500000000000000000 ) ;
#709 = ORIENTED_EDGE ( 'NONE', *, *, #12, .F. ) ;
#710 = DIRECTION ( 'NONE',  ( -0.000000000000000000, -1.000000000000000000, -0.000000000000000000 ) ) ;
#711 = ADVANCED_FACE ( 'NONE', ( #649 ), #90, .T. ) ;
#712 = VERTEX_POINT ( 'NONE', #703 ) ;
#713 = DIRECTION ( 'NONE',  ( 0.000000000000000000, 0.000000000000000000, 1.000000000000000000 ) ) ;
#714 = EDGE_LOOP ( 'NONE', ( #52, #636, #151, #204 ) ) ;
#715 = FACE_OUTER_BOUND ( 'NONE', #545, .T. ) ;
#716 = COORDINATED_UNIVERSAL_TIME_OFFSET ( 0, 0, .AHEAD. ) ;
#717 = LINE ( 'NONE', #723, #284 ) ;
#718 = EDGE_LOOP ( 'NONE', ( #311, #165 ) ) ;
#719 = LINE ( 'NONE', #542, #686 ) ;
#720 = PRODUCT_DEFINITION_FORMATION_WITH_SPECIFIED_SOURCE ( 'ANY', '', #689, .NOT_KNOWN. ) ;
#721 = AXIS2_PLACEMENT_3D ( 'NONE', #539, #777, #597 ) ;
#722 = AXIS2_PLACEMENT_3D ( 'NONE', #331, #280, #765 ) ;
#723 = CARTESIAN_POINT ( 'NONE',  ( 0.000000000000000000, 1.500000000000000000, -9.000000000000000000 ) ) ;
#724 = ORIENTED_EDGE ( 'NONE', *, *, #655, .F. ) ;
#725 = ADVANCED_FACE ( 'NONE', ( #82 ), #25, .F. ) ;
#726 = DIRECTION ( 'NONE',  ( 0.000000000000000000, 1.000000000000000000, -0.000000000000000000 ) ) ;
#727 = DIRECTION ( 'NONE',  ( -0.000000000000000000, -1.000000000000000000, -0.000000000000000000 ) ) ;
#728 = DIRECTION ( 'NONE',  ( 1.000000000000000000, 0.000000000000000000, 0.000000000000000000 ) ) ;
#729 = CYLINDRICAL_SURFACE ( 'NONE', #452, 1.499999999999999556 ) ;
#730 = CARTESIAN_POINT ( 'NONE',  ( 5.750000000000000000, 1.500000000000000000, -9.000000000000000000 ) ) ;
#731 = DATE_TIME_ROLE ( 'creation_date' ) ;
#732 = CARTESIAN_POINT ( 'NONE',  ( 0.000000000000000000, 101.5000000000000000, 0.000000000000000000 ) ) ;
#733 = VERTEX_POINT ( 'NONE', #461 ) ;
#734 = ADVANCED_FACE ( 'NONE', ( #267 ), #520, .F. ) ;
#735 = CIRCLE ( 'NONE', #18, 1.500000000000000444 ) ;
#736 = CIRCLE ( 'NONE', #496, 1.500000000000000444 ) ;
#737 = DIRECTION ( 'NONE',  ( 0.000000000000000000, 0.000000000000000000, 1.000000000000000000 ) ) ;
#738 = ORIENTED_EDGE ( 'NONE', *, *, #785, .F. ) ;
#739 = CARTESIAN_POINT ( 'NONE',  ( -5.750000000000000000, 1.500000000000000000, 7.250000000000000888 ) ) ;
#740 = DIRECTION ( 'NONE',  ( 1.000000000000000000, 0.000000000000000000, 0.000000000000000000 ) ) ;
#741 = DIRECTION ( 'NONE',  ( 0.000000000000000000, 1.000000000000000000, -0.000000000000000000 ) ) ;
#742 = EDGE_LOOP ( 'NONE', ( #563, #766 ) ) ;
#743 = DIRECTION ( 'NONE',  ( -0.000000000000000000, -1.000000000000000000, -0.000000000000000000 ) ) ;
#744 = DIRECTION ( 'NONE',  ( 0.000000000000000000, 0.000000000000000000, -1.000000000000000000 ) ) ;
#745 = CC_DESIGN_APPROVAL ( #69, ( #720 ) ) ;
#746 = ORIENTED_EDGE ( 'NONE', *, *, #144, .T. ) ;
#747 = EDGE_CURVE ( 'NONE', #487, #683, #209, .T. ) ;
#748 = VECTOR ( 'NONE', #562, 1000.000000000000000 ) ;
#749 = DIRECTION ( 'NONE',  ( 0.000000000000000000, 1.000000000000000000, -0.000000000000000000 ) ) ;
#750 = CC_DESIGN_PERSON_AND_ORGANIZATION_ASSIGNMENT ( #428, #535, ( #720 ) ) ;
#751 = DIRECTION ( 'NONE',  ( 1.000000000000000000, -0.000000000000000000, 0.000000000000000000 ) ) ;
#752 = ORIENTED_EDGE ( 'NONE', *, *, #387, .T. ) ;
#753 = EDGE_CURVE ( 'NONE', #672, #2, #594, .T. ) ;
#754 = VERTEX_POINT ( 'NONE', #693 ) ;
#755 = CIRCLE ( 'NONE', #413, 1.499999999999999556 ) ;
#756 = CARTESIAN_POINT ( 'NONE',  ( 5.750000000000000000, 0.000000000000000000, -5.750000000000000000 ) ) ;
#757 = VECTOR ( 'NONE', #340, 1000.000000000000000 ) ;
#758 = ADVANCED_FACE ( 'NONE', ( #514, #201, #637, #79, #83, #761 ), #270, .T. ) ;
#759 = ORIENTED_EDGE ( 'NONE', *, *, #330, .F. ) ;
#760 = CARTESIAN_POINT ( 'NONE',  ( -5.750000000000000000, 1.500000000000000000, 5.750000000000000000 ) ) ;
#761 = FACE_OUTER_BOUND ( 'NONE', #93, .T. ) ;
#762 = CARTESIAN_POINT ( 'NONE',  ( 5.750000000000000000, 1.500000000000000000, 5.750000000000000000 ) ) ;
#763 = ORIENTED_EDGE ( 'NONE', *, *, #488, .T. ) ;
#764 = EDGE_CURVE ( 'NONE', #364, #305, #454, .T. ) ;
#765 = DIRECTION ( 'NONE',  ( -1.000000000000000000, 0.000000000000000000, -0.000000000000000000 ) ) ;
#766 = ORIENTED_EDGE ( 'NONE', *, *, #185, .T. ) ;
#767 = CARTESIAN_POINT ( 'NONE',  ( 9.000000000000000000, 0.000000000000000000, 5.750000000000000000 ) ) ;
#768 = APPROVAL_PERSON_ORGANIZATION ( #95, #69, #236 ) ;
#769 = ADVANCED_FACE ( 'NONE', ( #638 ), #14, .T. ) ;
#770 = AXIS2_PLACEMENT_3D ( 'NONE', #181, #372, #669 ) ;
#771 = CARTESIAN_POINT ( 'NONE',  ( 5.750000000000000000, 1.500000000000000000, -4.250000000000000000 ) ) ;
#772 = VECTOR ( 'NONE', #751, 1000.000000000000000 ) ;
#773 = VERTEX_POINT ( 'NONE', #202 ) ;
#774 = DIRECTION ( 'NONE',  ( 0.000000000000000000, 0.000000000000000000, -1.000000000000000000 ) ) ;
#775 = MANIFOLD_SOLID_BREP ( 'Fillet2', #632 ) ;
#776 = DATE_TIME_ROLE ( 'classification_date' ) ;
#777 = DIRECTION ( 'NONE',  ( -0.000000000000000000, -1.000000000000000000, -0.000000000000000000 ) ) ;
#778 = DIRECTION ( 'NONE',  ( 0.000000000000000000, 1.000000000000000000, -0.000000000000000000 ) ) ;
#779 = ADVANCED_FACE ( 'NONE', ( #206 ), #80, .F. ) ;
#780 = DATE_AND_TIME ( #654, #621 ) ;
#781 = CARTESIAN_POINT ( 'NONE',  ( 7.347880794884119736E-16, 1.500000000000001332, -6.000000000000000000 ) ) ;
#782 = ORIENTED_EDGE ( 'NONE', *, *, #798, .T. ) ;
#783 = CARTESIAN_POINT ( 'NONE',  ( 0.000000000000000000, 3.000000000000002665, -4.500000000000000000 ) ) ;
#784 = DIRECTION ( 'NONE',  ( -0.000000000000000000, -1.000000000000000000, -0.000000000000000000 ) ) ;
#785 = EDGE_CURVE ( 'NONE', #629, #186, #580, .T. ) ;
#786 = CARTESIAN_POINT ( 'NONE',  ( 0.000000000000000000, 101.5000000000000000, -4.500000000000000000 ) ) ;
#787 = ORIENTED_EDGE ( 'NONE', *, *, #384, .F. ) ;
#788 = ADVANCED_BREP_SHAPE_REPRESENTATION ( 'drone_foot', ( #775, #282 ), #271 ) ;
#789 = DIRECTION ( 'NONE',  ( 0.000000000000000000, 1.000000000000000000, 0.000000000000000000 ) ) ;
#790 = VERTEX_POINT ( 'NONE', #210 ) ;
#791 = CYLINDRICAL_SURFACE ( 'NONE', #585, 1.500000000000000444 ) ;
#792 = CARTESIAN_POINT ( 'NONE',  ( -5.750000000000000000, 0.000000000000000000, 5.750000000000000000 ) ) ;
#793 = DIRECTION ( 'NONE',  ( 0.000000000000000000, 0.000000000000000000, 1.000000000000000000 ) ) ;
#794 = ORIENTED_EDGE ( 'NONE', *, *, #150, .F. ) ;
#795 = EDGE_CURVE ( 'NONE', #754, #629, #45, .T. ) ;
#796 = DIRECTION ( 'NONE',  ( 0.000000000000000000, 0.000000000000000000, 1.000000000000000000 ) ) ;
#797 = EDGE_LOOP ( 'NONE', ( #278, #70, #549, #511 ) ) ;
#798 = EDGE_CURVE ( 'NONE', #424, #84, #197, .T. ) ;
#799 = CIRCLE ( 'NONE', #646, 1.499999999999999556 ) ;
#800 = AXIS2_PLACEMENT_3D ( 'NONE', #682, #749, #198 ) ;
#801 = AXIS2_PLACEMENT_3D ( 'NONE', #698, #393, #517 ) ;
#802 = CARTESIAN_POINT ( 'NONE',  ( -5.750000000000000000, 1.500000000000000000, 4.249999999999998224 ) ) ;
#803 = ORIENTED_EDGE ( 'NONE', *, *, #420, .F. ) ;
#804 = PLANE ( 'NONE',  #161 ) ;
#805 = DIRECTION ( 'NONE',  ( 0.000000000000000000, 0.000000000000000000, 1.000000000000000000 ) ) ;
ENDSEC;
END-ISO-10303-21;
